# xmcd
#
# Track frame offsets:
#	150
#	24179
#	48159
#	83485
#
# Disc length: 1950 seconds
#
# Revision: 2
# Processed by: cddbd v1.5.1PL0 Copyright (c) Steve Scherf et al.
# Submitted via: audiograbber 1.83.01
#
DISCID=1b079c04
DTITLE=Irv Gotti - pres. Ja Rule, Ashanti, Vita and Charli Baltimore - Down For Y
DTITLE=ou (Maxi)
DYEAR=2002
DGENRE=Black
TTITLE0=Down4U(Radio Edit)
TTITLE1=Down4U(Album Version)
TTITLE2=Down4U(Instrumental)
TTITLE3=Daten-CD
EXTD=
EXTT0=
EXTT1=
EXTT2=
EXTT3=
PLAYORDER=
